<svg version="1.1" id="svg5" xmlns="http://www.w3.org/2000/svg" x="0" y="0" viewBox="0 0 627.2 169.6" style="enable-background:new 0 0 627.2 169.6" xml:space="preserve"><style>.st0{fill:#3cf20f}.st1{fill:#fff}.st3{enable-background:new}.st4{fill:none;stroke:#fff;stroke-width:.8504;stroke-miterlimit:11.3386}</style><g id="layer1" transform="translate(-43.601 -93.696)"><g id="g133976"><g id="path128818"><path class="st0" d="M130.3 95.2c-46.6.2-79.2 47-82 80.6-3.9 48.1 37 89.8 83.5 85.8 47.9-4.1 84.6-33.8 84.2-80.6-.3-48.4-31.3-84.4-83.5-85.8h-2.2zm5.6 5.9c47.6-.8 92 48.7 66.1 106.3 9.9-27.8 1.2-62.5-19.8-81.9-14.8-13.7-42.1-24.2-66.7-20.9 6.7-2.3 13.6-3.4 20.4-3.5zm-9.6 4.8c2.7 0 5.4.2 8.2.5 37.1 4.6 66.4 27.9 69.9 72.1 3.5 44.5-34.8 72.3-72.9 72.5-38.2.2-70.1-32.9-71-72.5-.8-35.9 25.7-72.7 65.8-72.6zM57.1 156c.3 0 .1 1.1-.4 3.3-1.1 4.8-1.7 15.9-1.1 22.6 2.3 29.1 16.6 52.5 40.2 65.9 8.2 4.7 20.3 8.6 30.1 9.8 2.8.3 5.1.8 5.1 1 0 .5-2.4.4-9.3-.1-9.3-.8-20.5-3.8-28.4-7.8-13.6-6.9-25.8-19.2-32.9-33.3-6.4-12.7-9.3-28-7.9-41.8.6-5.9 3-17.1 4.2-19 .2-.4.3-.6.4-.6z"/><path class="st0" d="M125.7 262.3c-19.8 0-39.2-8.2-54-22.9-17-17-25.7-40.2-23.8-63.6 2.8-33.7 35.5-80.8 82.4-81h2.2c25.3.7 46.5 9.5 61.5 25.4 14.5 15.4 22.3 36.5 22.4 60.8.2 22.5-8.2 42.1-24.1 56.6-15.2 13.9-36.1 22.3-60.5 24.4-2 .2-4.1.3-6.1.3zm4.6-166.7c-46.4.2-78.8 46.9-81.6 80.2-1.9 23.2 6.7 46.2 23.6 63 16.2 16.1 37.8 24.2 59.5 22.4 50.5-4.3 84.2-36.5 83.8-80.2-.3-50.5-32.9-84-83.1-85.4h-2.2zm-1 163.8c-1.4 0-3.7-.1-7.7-.4-9.6-.8-20.8-3.9-28.6-7.8-13.6-6.9-26-19.4-33.1-33.5-6.5-12.8-9.4-28.1-7.9-42 .6-5.9 3-17.2 4.3-19.2.2-.5.4-.8.8-.8.1 0 .3.1.4.2.3.3.2 1-.4 3.6-1.1 4.9-1.7 16-1.1 22.5 2.3 28.9 16.5 52.2 40 65.6 8.1 4.6 20.1 8.5 29.9 9.7 5.5.6 5.5 1.2 5.5 1.4 0 .2-.1.3-.2.4-.2.1-.7.3-1.9.3zM56.5 158c-1.2 3.5-3.1 12.3-3.6 17.6-1.4 13.7 1.5 28.9 7.9 41.6 7 13.9 19.2 26.3 32.7 33.1 7.7 3.9 18.8 6.9 28.2 7.8 2.6.2 5.6.4 7.4.4-.8-.2-2-.3-3.3-.5-9.9-1.2-22.1-5.2-30.3-9.9-23.8-13.5-38.1-37-40.4-66.2-.6-6.5 0-17.7 1.1-22.7.2-.3.3-.7.3-1.2zm74.7 93.4c-18.4 0-36-7.6-49.4-21.5-13.5-13.9-21.2-32.1-21.6-51.5-.4-19.8 7.5-40 21.2-53.9 12.3-12.5 27.9-19.1 45.1-19.1 2.4 0 5 .2 8.2.5 19.3 2.4 35.8 9.8 47.8 21.3 13.2 12.7 20.8 29.9 22.5 51.2 1.5 18.6-4.2 35.4-16.5 48.7-13.8 15.1-35.1 24.1-56.9 24.2-.2.1-.3.1-.4.1zm-5.1-145.1c-16.9 0-32.2 6.5-44.3 18.8-13.5 13.8-21.4 33.7-20.9 53.3.9 39.8 32.4 72.1 70.2 72.1h.3c21.5-.1 42.5-9.1 56.2-23.9 12.1-13.1 17.7-29.8 16.2-48.1-3.2-40.5-28.5-66.6-69.5-71.7-3.2-.3-5.8-.5-8.1-.5h-.1zM202 207.8h-.2c-.2-.1-.3-.3-.2-.5 9.8-27.6 1.5-61.8-19.7-81.4-13.9-12.9-41.2-24.2-66.4-20.8-.2 0-.4-.1-.5-.3-.1-.2.1-.4.3-.5 6.5-2.2 13.4-3.4 20.5-3.5 24.6-.4 48.5 12.4 62.4 33.5 14.2 21.6 15.7 47.7 4.1 73.4 0 0-.1.1-.3.1zm-77.2-104.2c22.6 0 45.3 10.2 57.7 21.6 19.4 17.9 28.1 47.9 22.3 74 7.8-22.8 5.4-45.5-7.2-64.6-13.7-20.8-37.4-33.5-61.7-33.1-5.5.1-10.9.8-16.1 2.2 1.6-.1 3.3-.1 5-.1zm11.1-2.5z"/></g><g id="path1183"><path class="st1" d="m252.7 193.4-20 .1v19.7h21.1c2.8-.3 4.2-3.4 4.3-5.2v-10c-.5-3.2-3.4-4.5-5.4-4.6zm-13.5 5 11.5.1c1.3 0 1 1.3 1.1 2.8v5.4c-.1.8-.5 1.4-1.6 1.4h-11.1v-9.7h.1z"/><path class="st1" d="M232.7 213.6h-.4v-20.5l20.4-.1c2.4.1 5.3 1.7 5.8 5v10.1c-.1 2.1-1.7 5.3-4.7 5.6l-21.1-.1zm.4-.8h20.7c2.6-.3 3.8-3.3 3.9-4.8v-10c-.5-3.1-3.5-4.1-5-4.2l-19.6.1v18.9zm17.1-4.3h-11.5V198h.5l11.5.1c1.5 0 1.5 1.3 1.5 2.4v6.2c-.1 1.2-.8 1.8-2 1.8zm-10.7-.8h10.7c.7 0 1.1-.3 1.2-1v-6.1c0-1.3-.1-1.5-.6-1.5l-11.2-.1v8.7z"/></g><g id="path1187"><path d="m262.4 193.4-.1 5.6 18.9.1c1.2.3 1.8 1.1 2.4 2.2h-18c-2.1.1-2.8.8-2.8 2.5v8c.3 1.5 1 2.7 2.4 2.8h24.2V199c-.7-2.9-1.5-4.8-4.6-5.6h-22.4zm6.8 12.7h11.1c.9.2 1.2 2.1.1 2.4h-11.3c-1.1-.4-.9-2.3.1-2.4z" style="fill:#faffff"/><path class="st1" d="M289.8 215h-24.6c-1-.1-2.3-.7-2.8-3.1v-8.1c0-2 .9-2.8 3.2-2.9h17.3c-.5-.7-.9-1.1-1.7-1.3l-19.3-.1.1-6.4h22.9c3.4.9 4.2 3.1 4.9 5.9v16zm-24.2-13.3c-2 .1-2.4.7-2.4 2.1v8c.3 1.5 1 2.3 2 2.4h23.7v-15.1c-.7-3-1.5-4.5-4.2-5.2h-21.9l-.1 4.8 18.6.1c1.4.4 2.1 1.4 2.7 2.4l.3.6h-18.7zm14.9 7.2H269c-.8-.3-1.1-1.1-1-1.9.1-.8.6-1.3 1.2-1.4h11.1c.8.2 1.2 1 1.2 1.7.1.8-.3 1.4-1 1.6zm-11.3-.8h11.2c.3-.1.4-.5.3-.7 0-.4-.2-.8-.5-.9h-11c-.2 0-.4.3-.4.6-.1.4.1.8.4 1z"/></g><g id="path1191"><path class="st0" d="M351.1 194.3h-53.4v52h15.5v-19.8h12.7l24.9 27.4H371l-24.8-27.5c4.8.9 11.8-1.5 11.8-7.1V201c-.3-4.3-3.3-6.4-6.9-6.7zm-38.5 12.1h26.8c3.5.3 4.1 6.8-.8 6.9h-26v-6.9z"/><path class="st0" d="M372 254.3h-21.3l-.1-.1-24.8-27.3h-12.1v19.8h-16.4v-52.8h53.9c4.3.4 7 3 7.3 7.1v18.3c0 2-.9 3.8-2.5 5.2-2.1 1.8-5.5 2.7-8.6 2.5l24.6 27.3zm-21-.8h19l-24.2-26.8.4-.7c3.1.6 6.9-.3 9.1-2.1 1.5-1.2 2.2-2.8 2.2-4.5V201c-.3-3.6-2.6-5.9-6.5-6.3h-53v51.2h14.6v-19.8h13.3l.1.1 25 27.3zm-38.4-39.8h-.4V206h27.2c2.1.2 3.2 2.2 3.2 4-.1 1.7-1.1 3.7-4 3.7h-26zm.4-.8h25.6c2.2 0 3.1-1.5 3.1-2.9s-.8-3-2.4-3.2H313v6.1z"/></g><g id="path1195"><path class="st0" d="M377.6 194.5c-7.3.1-10.3 5.6-10.6 12.5v24.8c-.2 11.7 7.9 14.9 17.3 15.5h54v-13.1h-51.8c-3.2-2.2-2.8-3.8-2.8-7.4H433c2.8-.2 4.8-1.3 4.8-4v-18.5c-.3-5.9-5.2-9.8-11.2-9.6H379c-.5-.2-1-.2-1.4-.2zm7.5 12.2H420c3.1.4 4.2 4.8 2.1 7.4h-39.9c-1.3-2.8-1.1-6.4 2.9-7.4z"/><path class="st0" d="M438.7 247.7h-54.4c-7.7-.5-18-2.7-17.7-15.9V207c.4-8.2 4.3-12.8 11-12.9.4 0 .9 0 1.5.2h47.5c6.5-.2 11.3 4 11.6 10v18.5c0 1.8-.9 4.1-5.2 4.4h-48.9v.7c0 2.8-.1 4.1 2.5 5.9h52.1v13.9zm-61.1-52.8c-8.4.1-10 7.6-10.2 12.1v24.8c-.2 9.5 5.2 14.3 16.9 15.1h53.5v-12.2h-51.5l-.1-.1c-3-2.1-3-3.8-3-6.7v-1.5H433c2.9-.2 4.4-1.4 4.4-3.6v-18.5c-.3-5.5-4.8-9.4-10.8-9.2H378.8c-.4-.2-.8-.2-1.2-.2zm44.7 19.6h-40.4l-.1-.2c-.9-1.9-1-3.9-.3-5.4.6-1.3 1.8-2.2 3.5-2.6h35c1.5.2 2.6 1.1 3.2 2.6.7 1.8.4 4-.8 5.5l-.1.1zm-39.8-.8h39.4c.9-1.2 1.1-3 .5-4.5-.5-1.2-1.4-1.9-2.5-2.1h-34.8c-1.4.4-2.4 1.1-2.9 2.1-.5 1.2-.4 2.9.3 4.5z"/></g><g id="path1199"><path class="st0" d="M444.9 247v-40.6c-.4-9.5 18.5-15.6 27.8-5.9 8.8 9.4 16.3 18.8 25.2 29.2 1.4 1.6 5.1 2.3 5.1-2.7v-32.3h15.2v39.6c-1.2 7.4-2.5 11.6-10.3 12.6-3.5.4-7.1.4-10.9.2-12.1-11.5-24.2-26.2-33.5-38-.9-.9-2.9-1.2-3 .2v38l-15.6-.3z"/><path class="st0" d="m460.9 247.7-16.4-.3v-41c-.2-3.9 2.7-7.5 7.7-9.6 6-2.6 15.1-2.6 20.9 3.4 6.2 6.6 11.7 13.1 17.5 20.1 2.5 3 5.1 6 7.7 9.2.6.7 1.9 1.3 2.9.9s1.5-1.5 1.5-3.3v-32.7h16v40c-1.2 7.4-2.5 12-10.7 13-3.2.4-6.7.4-11 .2h-.2l-.1-.1c-12.7-12.1-25.2-27.5-33.5-38-.5-.5-1.4-.7-1.9-.5-.2.1-.3.2-.4.5v38.2zm-15.6-1.1 14.8.3v-37.6c0-.6.4-1.1.9-1.3.8-.3 2.1 0 2.8.8 8.3 10.5 20.8 25.9 33.4 37.9 4.2.2 7.6.1 10.7-.2 7.3-.9 8.7-4.6 9.9-12.2v-39.1h-14.4V227c0 2.8-1.1 3.8-2 4.1-1.4.5-3-.2-3.8-1.2-2.7-3.1-5.2-6.2-7.7-9.2-5.8-6.9-11.3-13.5-17.4-20-5.5-5.7-14.1-5.6-19.9-3.2-4.6 2-7.3 5.3-7.2 8.8v40.3z"/></g><g id="path1201"><path class="st0" d="m575.2 193.3-52.6.2v52.4h53.9c7.9-3.4 10-3.9 12.8-12.5V206c-1.8-5.3-7.5-12.3-14.1-12.7zm-36.9 13.1 29.5.1c3.2-.1 6.1 1.1 6.1 4.7v16.3c-.1 4.1-2.7 5-5.9 5.1h-29.7v-26.2z"/><path class="st0" d="M576.6 246.3h-54.4v-53.2h.4l52.6-.2c7.1.4 12.7 7.9 14.5 13v27.6c-2.7 8.3-4.8 9.3-11.9 12.3l-1.2.5zm-53.6-.8h53.4l1.1-.5c6.9-3 8.8-3.8 11.4-11.7V206c-1.6-4.8-7.1-11.9-13.7-12.3l-52.2.2v51.6zm15.3-12.5h-.4v-27l29.9.1c1.6-.1 3.7.2 5.2 1.6.9.9 1.4 2.1 1.4 3.6v16.3c-.1 4.7-3.4 5.4-6.3 5.5h-29.8zm.4-.8H568c3.8-.1 5.4-1.5 5.5-4.7v-16.3c0-1.2-.4-2.2-1.1-2.9-1.2-1.2-3.2-1.4-4.6-1.3l-29.1-.1v25.3z"/></g><g id="path1205"><path class="st0" d="m595 194.1-.2 13h49.9c3.2.2 4.9 3.7 6.3 6.8h-49.1c-3.2.4-5.7 2.1-6.1 5.1v24.1c.4 3.7 2.7 5.2 5.9 5.1h64.7v-40.7c.1-9.1-2.6-13-13.4-13.3h-58v-.1zm17.8 32.3h31.6c3 1.3 3 4.7.7 6.1h-32.6c-2.8-2.4-1.4-5.5.3-6.1z"/><path class="st0" d="M601.4 248.6c-3.5 0-5.6-1.9-6-5.5V219c.4-3 2.8-5.1 6.5-5.5h48.5c-1.4-3.1-3-5.8-5.7-6h-50.3l.2-13.4h.4v-.3h58c10.4.3 13.9 3.8 13.8 13.7v41.1H601.4zm.5-34.3c-3.2.4-5.3 2.1-5.7 4.7v24c.3 3.2 2.2 4.8 5.5 4.7H666v-40.3c.1-8.3-1.9-12.6-13-12.9h-57.6l-.2 12.1h49.5c3.6.2 5.4 4.2 6.7 7l.3.6h-49.8zm43.3 18.6h-32.9l-.1-.1c-1.8-1.6-1.8-3.3-1.7-4.1.2-1.2 1.1-2.3 2.1-2.7H644.5c1.5.7 2.5 1.9 2.6 3.4.1 1.4-.6 2.7-1.8 3.5h-.1zm-32.5-.8H645c.9-.6 1.4-1.6 1.3-2.6-.1-1.1-.8-2.1-2-2.6h-31.4c-.7.3-1.3 1.1-1.5 2-.2 1.1.2 2.2 1.3 3.2z"/></g><g id="g114056" transform="translate(-49.204 -31.244)"><g id="path1209"><path class="st1" d="M152.7 161.4v7.6h-10.9c-9.2.9-12.6 8.4-13.3 13.9v25.5c.9 14.2 11.6 15.7 25.8 15.7v19.6h16.6v-20.2h13.5l19.6 21.4 6 6.8h21l-3.5-4-16.8-18.1-5.5-5.7v-1.1c6.7.3 11.8.9 12.3-7.4V197c.3-4.8-2.1-8.1-7.7-8.1h-55.4v21c-6.1.2-9.7-.2-9.5-6.2v-16c.1-2.4.2-5.1 7.4-5.2l38.1.2v-13.9h-12.7v-7.4h-11v7.7h-2.5v-7.8l-11.5.1zm17.7 41.3h26.8c3.5.3 4.1 6.8-.8 6.9h-26v-6.9z"/><path class="st1" d="M231.9 252.1h-22.1l-6.1-6.9-19.5-21.3h-12.9v20.2h-17.5v-19.6c-13.6 0-24.9-1.4-25.8-16.1v-25.5c.8-6.4 4.8-13.5 13.7-14.3h10.5V161l12.4-.1v7.8h1.6V161h11.9v7.4h12.7v14.8l-38.5-.2c-6.8.1-6.9 2.5-7 4.8v16c-.1 2.1.3 3.5 1.2 4.4 1.3 1.3 3.6 1.5 7.4 1.4v-21h55.8c2.7 0 4.9.8 6.3 2.3 1.4 1.5 2 3.6 1.9 6.3v18.4c-.5 8.4-5.5 8.2-11.9 7.9h-.4v.5l5.4 5.6 16.8 18.1 4.1 4.4zm-21.7-.8h19.9l-2.9-3.3-16.8-18.1-5.6-5.8v-1.7l1.3.1c6.4.3 10.6.5 11-7v-18.4c.2-2.4-.4-4.4-1.6-5.7-1.2-1.3-3.1-2-5.6-2h-55v21h-.4c-3.6.1-6.8.1-8.5-1.7-1.1-1.1-1.5-2.7-1.5-5v-16c.1-2.5.2-5.5 7.8-5.6l37.7.2v-13h-12.7v-7.4h-10.1v7.7h-3.4v-7.8l-10.6.1v7.6h-11.3c-10.5 1-12.5 10.6-12.9 13.5v25.4c.9 14.1 12 15.3 25.4 15.3h.4v19.6h15.7v-20.2h14.1l19.7 21.5 5.9 6.7zM170.4 210h-.4v-7.8h27.2c2.2.2 3.2 2.2 3.2 4-.1 1.7-1.1 3.7-4 3.7h-26zm.4-.8h25.6c2.2 0 3.1-1.5 3.1-2.9s-.8-3-2.4-3.2h-26.3v6.1z"/></g><g id="path1213"><path class="st1" d="M152.6 250.5V262h11.5v-11.6l-11.5.1z"/><path class="st1" d="M164.5 262.4h-12.4v-12.3l12.4-.1v12.4zm-11.5-.8h10.6v-10.7l-10.6.1v10.6z"/></g><g id="path1213-0"><path class="st1" d="M166.2 250.5V262h11.5v-11.6l-11.5.1z"/><path class="st1" d="M178.1 262.4h-12.4v-12.3l12.4-.1v12.4zm-11.5-.8h10.6v-10.7l-10.6.1v10.6z"/></g></g></g></g><g class="st3"><path class="st1" d="M188.3 48.2c0-4.6 1.6-8.5 4.9-11.8 3.3-3.2 7.2-4.9 11.8-4.9h43.9V45h-36.4c-2.7 0-4.6 1-5.6 3.1-.8 2.1-1.2 4.6-1.2 7.5v5.1c0 2.9.4 5.4 1.2 7.5 1.1 2.1 2.9 3.1 5.6 3.1h36.4V85H205c-4.6 0-8.5-1.6-11.8-4.9-3.2-3.2-4.9-7.2-4.9-11.7V48.2zM302.6 31.5c4.6 0 8.5 1.6 11.8 4.9 3.2 3.2 4.9 7.2 4.9 11.8v20.2c0 4.6-1.6 8.5-4.9 11.7-3.3 3.2-7.2 4.9-11.8 4.9h-27.3c-4.6 0-8.5-1.6-11.8-4.9-3.2-3.2-4.9-7.2-4.9-11.7V48.2c0-4.6 1.6-8.5 4.9-11.8 3.3-3.2 7.2-4.9 11.8-4.9h27.3zm-.7 24.2c0-2.9-.4-5.5-1.2-7.5-1.1-2.1-2.9-3.1-5.6-3.1h-12.2c-2.7 0-4.6 1-5.6 3.1-.8 2.1-1.2 4.6-1.2 7.5v5.1c0 2.9.4 5.4 1.2 7.5 1.1 2.1 2.9 3.1 5.6 3.1h12.2c2.7 0 4.6-1 5.6-3.1.8-2.1 1.2-4.6 1.2-7.5v-5.1zm-22.1-27.5 6.8-14.8h20.7l-10.2 14.8h-17.3zM373 31.5c4.6 0 8.5 1.6 11.8 4.9 3.2 3.2 4.9 7.2 4.9 11.8v20.2c0 4.6-1.6 8.5-4.9 11.7-3.3 3.2-7.2 4.9-11.8 4.9h-43.9V41.2c0-2.7.9-5 2.8-6.9 1.9-1.9 4.2-2.8 6.9-2.8H373zm-.7 24.2c0-2.9-.4-5.5-1.2-7.5-1.1-2.1-2.9-3.1-5.6-3.1h-15.4c-1 0-1.9.4-2.6 1.1-.7.7-1.1 1.6-1.1 2.6v22.6h19.1c2.7 0 4.6-1 5.6-3.1.8-2.1 1.2-4.6 1.2-7.5v-5.1zM399.4 31.5h17.3V85h-17.3V31.5zM457.3 53.2h29.9v15.9c0 4.3-1.6 8-4.9 11-3.2 3.2-7.2 4.9-11.8 4.9h-27.3c-4.6 0-8.5-1.6-11.7-4.9-3.3-3.2-4.9-7.2-4.9-11.7V48.2c0-4.6 1.6-8.5 4.9-11.8 3.2-3.2 7.2-4.9 11.7-4.9h36.9V45h-29.3c-2.9 0-4.8 1-5.6 3.1-.8 2.1-1.2 4.6-1.2 7.5v5.1c0 2.9.4 5.4 1.2 7.5 1.1 2.1 3 3.1 5.6 3.1H463c2.7 0 4.6-.9 5.7-2.8.8-1.8 1.2-3.2 1.2-4.2h-12.5V53.2zM540.9 31.5c4.6 0 8.5 1.6 11.8 4.9 3.2 3.2 4.9 7.2 4.9 11.8v20.2c0 4.6-1.6 8.5-4.9 11.7-3.3 3.2-7.2 4.9-11.8 4.9h-27.3c-4.6 0-8.5-1.6-11.8-4.9-3.2-3.2-4.9-7.2-4.9-11.7V48.2c0-4.6 1.6-8.5 4.9-11.8 3.3-3.2 7.2-4.9 11.8-4.9h27.3zm-.7 24.2c0-2.9-.4-5.5-1.2-7.5-1.1-2.1-2.9-3.1-5.6-3.1h-12.2c-2.7 0-4.6 1-5.6 3.1-.8 2.1-1.2 4.6-1.2 7.5v5.1c0 2.9.4 5.4 1.2 7.5 1.1 2.1 2.9 3.1 5.6 3.1h12.2c2.7 0 4.6-1 5.6-3.1.8-2.1 1.2-4.6 1.2-7.5v-5.1zM605.4 71.4c.9 0 1.5-.3 1.9-.8.4-.5.6-1.1.6-1.7v-2.3c0-.6-.2-1.2-.6-1.7-.4-.5-1-.8-1.9-.8H577c-2.7 0-4.9-.9-6.8-2.8-1.9-1.9-2.8-4.2-2.8-6.8V41.2c0-2.7.9-5 2.8-6.9 1.9-1.9 4.2-2.8 6.8-2.8h43.7V45h-36.8c-.9 0-1.5.3-1.9.8-.4.5-.6 1.1-.6 1.7v2.4c0 .6.2 1.1.6 1.6.4.5 1 .8 1.9.8h27.9c2.8 0 5.1 1 7.1 3s2.9 4.3 2.9 7.1V75c0 2.8-1 5.1-2.9 7.1-2 2-4.3 2.9-7.1 2.9h-43.3V71.4h36.9z"/></g><g class="st3"><path class="st4" d="M188.3 48.2c0-4.6 1.6-8.5 4.9-11.8 3.3-3.2 7.2-4.9 11.8-4.9h43.9V45h-36.4c-2.7 0-4.6 1-5.6 3.1-.8 2.1-1.2 4.6-1.2 7.5v5.1c0 2.9.4 5.4 1.2 7.5 1.1 2.1 2.9 3.1 5.6 3.1h36.4V85H205c-4.6 0-8.5-1.6-11.8-4.9-3.2-3.2-4.9-7.2-4.9-11.7V48.2zM302.6 31.5c4.6 0 8.5 1.6 11.8 4.9 3.2 3.2 4.9 7.2 4.9 11.8v20.2c0 4.6-1.6 8.5-4.9 11.7-3.3 3.2-7.2 4.9-11.8 4.9h-27.3c-4.6 0-8.5-1.6-11.8-4.9-3.2-3.2-4.9-7.2-4.9-11.7V48.2c0-4.6 1.6-8.5 4.9-11.8 3.3-3.2 7.2-4.9 11.8-4.9h27.3zm-.7 24.2c0-2.9-.4-5.5-1.2-7.5-1.1-2.1-2.9-3.1-5.6-3.1h-12.2c-2.7 0-4.6 1-5.6 3.1-.8 2.1-1.2 4.6-1.2 7.5v5.1c0 2.9.4 5.4 1.2 7.5 1.1 2.1 2.9 3.1 5.6 3.1h12.2c2.7 0 4.6-1 5.6-3.1.8-2.1 1.2-4.6 1.2-7.5v-5.1zm-22.1-27.5 6.8-14.8h20.7l-10.2 14.8h-17.3zM373 31.5c4.6 0 8.5 1.6 11.8 4.9 3.2 3.2 4.9 7.2 4.9 11.8v20.2c0 4.6-1.6 8.5-4.9 11.7-3.3 3.2-7.2 4.9-11.8 4.9h-43.9V41.2c0-2.7.9-5 2.8-6.9 1.9-1.9 4.2-2.8 6.9-2.8H373zm-.7 24.2c0-2.9-.4-5.5-1.2-7.5-1.1-2.1-2.9-3.1-5.6-3.1h-15.4c-1 0-1.9.4-2.6 1.1-.7.7-1.1 1.6-1.1 2.6v22.6h19.1c2.7 0 4.6-1 5.6-3.1.8-2.1 1.2-4.6 1.2-7.5v-5.1zM399.4 31.5h17.3V85h-17.3V31.5zM457.3 53.2h29.9v15.9c0 4.3-1.6 8-4.9 11-3.2 3.2-7.2 4.9-11.8 4.9h-27.3c-4.6 0-8.5-1.6-11.7-4.9-3.3-3.2-4.9-7.2-4.9-11.7V48.2c0-4.6 1.6-8.5 4.9-11.8 3.2-3.2 7.2-4.9 11.7-4.9h36.9V45h-29.3c-2.9 0-4.8 1-5.6 3.1-.8 2.1-1.2 4.6-1.2 7.5v5.1c0 2.9.4 5.4 1.2 7.5 1.1 2.1 3 3.1 5.6 3.1H463c2.7 0 4.6-.9 5.7-2.8.8-1.8 1.2-3.2 1.2-4.2h-12.5V53.2zM540.9 31.5c4.6 0 8.5 1.6 11.8 4.9 3.2 3.2 4.9 7.2 4.9 11.8v20.2c0 4.6-1.6 8.5-4.9 11.7-3.3 3.2-7.2 4.9-11.8 4.9h-27.3c-4.6 0-8.5-1.6-11.8-4.9-3.2-3.2-4.9-7.2-4.9-11.7V48.2c0-4.6 1.6-8.5 4.9-11.8 3.3-3.2 7.2-4.9 11.8-4.9h27.3zm-.7 24.2c0-2.9-.4-5.5-1.2-7.5-1.1-2.1-2.9-3.1-5.6-3.1h-12.2c-2.7 0-4.6 1-5.6 3.1-.8 2.1-1.2 4.6-1.2 7.5v5.1c0 2.9.4 5.4 1.2 7.5 1.1 2.1 2.9 3.1 5.6 3.1h12.2c2.7 0 4.6-1 5.6-3.1.8-2.1 1.2-4.6 1.2-7.5v-5.1zM605.4 71.4c.9 0 1.5-.3 1.9-.8.4-.5.6-1.1.6-1.7v-2.3c0-.6-.2-1.2-.6-1.7-.4-.5-1-.8-1.9-.8H577c-2.7 0-4.9-.9-6.8-2.8-1.9-1.9-2.8-4.2-2.8-6.8V41.2c0-2.7.9-5 2.8-6.9 1.9-1.9 4.2-2.8 6.8-2.8h43.7V45h-36.8c-.9 0-1.5.3-1.9.8-.4.5-.6 1.1-.6 1.7v2.4c0 .6.2 1.1.6 1.6.4.5 1 .8 1.9.8h27.9c2.8 0 5.1 1 7.1 3s2.9 4.3 2.9 7.1V75c0 2.8-1 5.1-2.9 7.1-2 2-4.3 2.9-7.1 2.9h-43.3V71.4h36.9z"/></g></svg>